<svg width="126" height="40" viewBox="0 0 126 40" fill="none" xmlns="http://www.w3.org/2000/svg">
<path d="M16.56 30H9C6.6 30 4.91 29.59 3.93 28.77C2.97 27.93 2.49 26.46 2.49 24.36V8.64H16.56V12.36H6.66V17.37H13.59L13.29 21.09H6.66V24.06C6.66 24.9 6.85 25.48 7.23 25.8C7.61 26.12 8.3 26.28 9.3 26.28H16.56V30ZM37.3041 8.64V27.84C37.3041 28.5 37.1041 29.07 36.7041 29.55C36.3041 30.01 35.8341 30.24 35.2941 30.24C33.9141 30.24 32.7841 29.44 31.9041 27.84L24.5241 16.29V30H20.3541V8.64H24.3741L33.1341 22.62V8.64H37.3041ZM55.5206 12.36H49.7906V30H45.6206V12.36H39.9206V8.64H55.5206V12.36ZM74.9393 30H70.1093L65.9393 22.08H62.9393V30H58.7693V13.23C58.7693 11.63 59.1393 10.47 59.8793 9.75C60.6193 9.01 61.8593 8.64 63.5993 8.64H67.1393C69.2593 8.64 70.9393 9.29 72.1793 10.59C73.4393 11.87 74.0693 13.5 74.0693 15.48C74.0693 16.92 73.6893 18.17 72.9293 19.23C72.1893 20.27 71.2693 20.99 70.1693 21.39L74.9393 30ZM66.8693 18.6C67.7493 18.6 68.4693 18.3 69.0293 17.7C69.6093 17.08 69.8993 16.32 69.8993 15.42C69.8993 14.5 69.6193 13.76 69.0593 13.2C68.5193 12.64 67.7893 12.36 66.8693 12.36H64.7993C63.5593 12.36 62.9393 12.99 62.9393 14.25V18.6H66.8693Z" fill="black"/>
<path d="M89.5409 30H85.3709V8.64H89.5409V30ZM98.6815 30H94.5115V8.64H98.6815V30ZM119.432 17.25L115.592 25.35C115.032 26.43 114.332 26.97 113.492 26.97C112.672 26.97 111.982 26.4 111.422 25.26L107.522 17.25V30H103.352V8.64H107.462L113.492 20.97L119.492 8.64H123.602V30H119.432V17.25Z" fill="#ED7000"/>
<path d="M79.3884 7.31438C79.3098 7.23589 79.2033 7.1918 79.0923 7.1918C78.9812 7.1918 78.8747 7.23589 78.7961 7.31438L78.5 7.60997C78.4227 7.68994 78.3303 7.75373 78.2281 7.79762C78.1259 7.8415 78.016 7.8646 77.9047 7.86557C77.7935 7.86653 77.6832 7.84535 77.5802 7.80324C77.4773 7.76114 77.3838 7.69897 77.3051 7.62035C77.2264 7.54173 77.1642 7.44823 77.1221 7.34533C77.08 7.24242 77.0588 7.13216 77.0598 7.02098C77.0607 6.90979 77.0838 6.79992 77.1278 6.69776C77.1717 6.5956 77.2355 6.5032 77.3155 6.42596L79.6736 4.06799C80.2319 3.94106 80.8161 3.9933 81.3429 4.21728C81.8698 4.44126 82.3127 4.82558 82.6085 5.31559C82.9043 5.8056 83.038 6.37636 82.9907 6.94672C82.9433 7.51707 82.7173 8.05798 82.3447 8.49253L81.4617 9.3864L79.3884 7.31438ZM74.7978 4.79732C75.2312 4.36415 75.7981 4.08975 76.4068 4.01849C77.0155 3.94722 77.6305 4.08326 78.1524 4.4046L76.7228 5.83395C76.4132 6.14282 76.2367 6.56048 76.231 6.99768C76.2254 7.43489 76.391 7.85696 76.6926 8.17372C76.9941 8.49049 77.4076 8.67681 77.8447 8.69288C78.2819 8.70896 78.7079 8.55351 79.0319 8.25975L79.0923 8.20239L80.8695 9.9784L79.0923 11.7548C78.9352 11.9118 78.7221 12 78.5 12C78.2779 12 78.0648 11.9118 77.9077 11.7548L74.7973 8.64577C74.2868 8.13541 74 7.44326 74 6.72154C74 5.99983 74.2872 5.30767 74.7978 4.79732Z" fill="black"/>
</svg>
