<svg width="19" height="21" viewBox="0 0 19 21" fill="none" xmlns="http://www.w3.org/2000/svg">
<path d="M9.49998 15.7083C13.3146 15.7083 16.651 17.349 18.4656 19.7969L16.5469 20.7042C15.0698 18.9542 12.4656 17.7917 9.49998 17.7917C6.53436 17.7917 3.93019 18.9542 2.45311 20.7042L0.5354 19.7958C2.34998 17.3479 5.6854 15.7083 9.49998 15.7083ZM9.49998 0.0833435C10.8813 0.0833435 12.2061 0.632077 13.1828 1.60883C14.1596 2.58558 14.7083 3.91034 14.7083 5.29168V8.41668C14.7082 9.75883 14.19 11.0491 13.2618 12.0185C12.3335 12.9879 11.0669 13.5616 9.72603 13.6198L9.49998 13.625C8.11865 13.625 6.79389 13.0763 5.81714 12.0995C4.84038 11.1228 4.29165 9.79801 4.29165 8.41668V5.29168C4.29173 3.94953 4.80992 2.65922 5.73817 1.68983C6.66642 0.720434 7.93306 0.146801 9.27394 0.088552L9.49998 0.0833435ZM9.49998 2.16668C8.70289 2.16663 7.93591 2.47118 7.35596 3.01801C6.77602 3.56485 6.42696 4.31262 6.38019 5.10834L6.37498 5.29168V8.41668C6.3742 9.23012 6.69063 10.0118 7.25704 10.5957C7.82345 11.1795 8.59519 11.5195 9.40828 11.5433C10.2214 11.5672 11.0117 11.2731 11.6114 10.7235C12.2111 10.1739 12.5728 9.4121 12.6198 8.60001L12.625 8.41668V5.29168C12.625 4.46288 12.2957 3.66802 11.7097 3.08197C11.1236 2.49592 10.3288 2.16668 9.49998 2.16668Z" fill="black"/>
</svg>
